<svg xmlns="http://www.w3.org/2000/svg" xml:space="preserve" width="1400" height="100" data-id="lg_4NSzXK29HRUMrP3W8T" data-version="1"><g data-padding="20"><g transform="translate(10 2.086)scale(.96435)"><rect width="201.727" height="201.727" x="979.044" y="-689.657" fill="#c885bb" rx="13" ry="13" transform="matrix(.58 0 0 .58 178.5 400)" vector-effect="non-scaling-stroke"/><path fill="#76309b" d="M889.896 56.83q-1.21 0-2-.79-.78-.78-.78-2V14.31q0-1.22.78-2 .79-.78 2-.78h10.56q4.29 0 7.66 1.8 3.36 1.79 5.24 4.98 1.89 3.19 1.89 7.37 0 3.94-1.89 7.02-1.88 3.07-5.24 4.81-3.37 1.74-7.66 1.74h-7.83v14.79q0 1.22-.75 2-.76.79-1.98.79m24.13 0q-.81 0-1.39-.32t-1.04-1.02l-10.68-17.17 5.46-1.5 9.8 15.77q.98 1.57.29 2.9-.7 1.34-2.44 1.34m-21.4-40.14v17.4h7.83q2.78 0 4.9-1.07 2.12-1.08 3.34-2.99 1.21-1.91 1.21-4.35 0-2.61-1.21-4.67-1.22-2.06-3.34-3.19t-4.9-1.13Zm60.16 40.14h-26.51q-1.22 0-2-.79-.78-.78-.78-2V14.31q0-1.22.78-2t2-.78h26.51q1.21 0 1.97.72.75.73.75 1.89 0 1.1-.75 1.82-.76.73-1.97.73h-23.78v14.73h17.16q1.22 0 1.98.73.75.72.75 1.88 0 1.1-.75 1.83-.76.72-1.98.72h-17.16v15.08h23.78q1.21 0 1.97.73.75.72.75 1.83 0 1.16-.75 1.88-.76.73-1.97.73m25.34.58q-3.71 0-6.99-1.14-3.27-1.13-5.71-3.19-2.44-2.05-3.65-4.72-.53-1.1.02-2.06.56-.96 1.89-1.25.93-.23 1.88.26.96.5 1.43 1.48.75 1.57 2.37 2.81 1.63 1.25 3.92 2.01 2.29.75 4.84.75 2.9 0 5.25-.93t3.77-2.67 1.42-4.29q0-3.25-2.46-5.71-2.47-2.47-7.98-3.1-7.07-.76-11.1-4.24-4.04-3.48-4.04-8.58 0-3.77 2.06-6.41t5.63-4.03 8.03-1.39q3.42 0 6.03.98 2.61.99 4.59 2.7 1.97 1.71 3.36 3.97.7 1.16.55 2.21-.14 1.04-1.07 1.62-1.05.58-2.21.2-1.16-.37-1.74-1.36-.87-1.57-2.2-2.73t-3.16-1.85q-1.83-.7-4.32-.7-4.35-.06-7.22 1.71t-2.87 5.25q0 1.86.95 3.45.96 1.6 3.37 2.79 2.4 1.19 6.75 1.65 7.02.81 10.76 4.29t3.74 9.11q0 3.25-1.27 5.68-1.28 2.44-3.51 4.09t-5.11 2.49q-2.87.85-6 .85m36.13-.58q-1.11 0-1.92-.82-.81-.81-.81-1.97V11.53h5.51v42.51q0 1.16-.78 1.97-.79.82-2 .82m15.71-40.2h-31.37q-1.16 0-1.86-.72-.7-.73-.7-1.83 0-1.16.7-1.86.7-.69 1.86-.69h31.37q1.16 0 1.86.69.7.7.7 1.86 0 1.1-.7 1.83-.7.72-1.86.72m12.01 40.2q-1.22 0-2-.79-.78-.78-.78-2V14.31q0-1.22.78-2t2-.78h10.56q4.29 0 7.65 1.8 3.37 1.79 5.25 4.98 1.89 3.19 1.89 7.37 0 3.94-1.89 7.02-1.88 3.07-5.25 4.81-3.36 1.74-7.65 1.74h-7.83v14.79q0 1.22-.76 2-.75.79-1.97.79m24.13 0q-.81 0-1.39-.32t-1.05-1.02l-10.67-17.17 5.45-1.5 9.8 15.77q.99 1.57.29 2.9-.69 1.34-2.43 1.34m-21.4-40.14v17.4h7.83q2.78 0 4.9-1.07 2.11-1.08 3.33-2.99t1.22-4.35q0-2.61-1.22-4.67t-3.33-3.19q-2.12-1.13-4.9-1.13Zm51.79 40.72q-5.1 0-9.34-1.72-4.23-1.71-7.28-4.84-3.04-3.13-4.75-7.36-1.71-4.24-1.71-9.34 0-5.05 1.71-9.28 1.71-4.24 4.75-7.37 3.05-3.13 7.28-4.84 4.24-1.71 9.34-1.71 5.05 0 9.28 1.71t7.31 4.84q3.07 3.13 4.78 7.37 1.71 4.23 1.71 9.28 0 5.1-1.71 9.34-1.71 4.23-4.78 7.36-3.08 3.13-7.31 4.84-4.23 1.72-9.28 1.72m0-5.05q3.83 0 7.08-1.39 3.24-1.39 5.65-3.86 2.41-2.46 3.68-5.77 1.28-3.31 1.28-7.19 0-3.83-1.28-7.17-1.27-3.33-3.68-5.8-2.41-2.46-5.65-3.82-3.25-1.37-7.08-1.37-3.89 0-7.13 1.37-3.25 1.36-5.6 3.82-2.35 2.47-3.68 5.8-1.34 3.34-1.34 7.17 0 3.88 1.34 7.19 1.33 3.31 3.68 5.77 2.35 2.47 5.6 3.86 3.24 1.39 7.13 1.39m35.26 4.47q-1.16 0-1.97-.82-.81-.81-.81-1.97V14.31q0-1.22.81-2t1.97-.78q1.63 0 2.44 1.45l18.62 37.23h-1.92l18.22-37.23q.87-1.45 2.43-1.45 1.16 0 1.97.78.82.78.82 2v39.73q0 1.16-.82 1.97-.81.82-1.97.82t-1.97-.82q-.81-.81-.81-1.97V21.79l1.1-.17-15.83 32.31q-.87 1.39-2.38 1.39-1.74 0-2.55-1.68l-15.78-31.56 1.16-.29v32.25q0 1.16-.78 1.97-.79.82-1.95.82m52.16 0q-1.51 0-2.3-1.31-.78-1.3-.14-2.7l16.53-39.44q.81-1.85 2.61-1.85 1.91 0 2.61 1.85l16.65 39.56q.58 1.45-.21 2.67-.78 1.22-2.29 1.22-.81 0-1.54-.44-.72-.43-1.07-1.25l-14.9-36.71h1.68l-15.08 36.71q-.35.82-1.08 1.25-.72.44-1.47.44m30.56-10.27h-27.26l2.15-4.58h23.02Zm15.01 10.27q-1.16 0-1.97-.82-.81-.81-.81-1.97V14.31q0-1.16.81-1.97t1.97-.81 1.95.81q.78.81.78 1.97v18.16l19.89-19.84q.58-.64 1.11-.87.52-.23 1.16-.23 1.27 0 1.88.78t.49 1.89q-.11 1.1-.98 2.03l-15.14 15.19 15.37 21q.64.93.55 1.94-.09 1.02-.75 1.74-.67.73-1.71.73-1.51 0-2.32-1.16l-15.03-20.42-4.52 4.52v14.27q0 1.16-.78 1.97-.79.82-1.95.82m64.96 0h-26.5q-1.22 0-2-.79-.79-.78-.79-2V14.31q0-1.22.79-2 .78-.78 2-.78h26.5q1.22 0 1.98.72.75.73.75 1.89 0 1.1-.75 1.82-.76.73-1.98.73h-23.78v14.73h17.17q1.22 0 1.97.73.76.72.76 1.88 0 1.1-.76 1.83-.75.72-1.97.72h-17.17v15.08h23.78q1.22 0 1.98.73.75.72.75 1.83 0 1.16-.75 1.88-.76.73-1.98.73"/><rect width="425.033" height="65.54" x="413.829" y="-374.27" fill="none" rx="0" ry="0" transform="translate(467.99 379.81)"/><path fill="#76309b" d="M883.396 97.77q-.43 0-.74-.31t-.31-.75V77.73q0-.46.29-.75.3-.3.76-.3h12.66q.46 0 .76.28.29.29.29.75 0 .4-.29.7-.3.3-.76.3h-11.61v7.45h8.45q.46 0 .76.29.3.3.3.73 0 .44-.3.73-.3.3-.76.3h-8.45v8.5q0 .44-.29.75-.3.31-.76.31m23.95.13q-2.16 0-3.86-.97t-2.68-2.67q-.97-1.7-.97-3.86 0-2.19.97-3.89.98-1.7 2.68-2.67 1.7-.98 3.86-.98t3.85.98q1.68.97 2.66 2.67.97 1.7.99 3.89 0 2.16-.98 3.86-.99 1.7-2.67 2.67-1.69.97-3.85.97m0-1.89q1.56 0 2.81-.73 1.24-.73 1.94-1.99.7-1.27.7-2.89t-.7-2.91q-.7-1.28-1.94-2.01-1.25-.73-2.81-.73-1.57 0-2.81.73t-1.96 2.01q-.71 1.29-.71 2.91t.71 2.89q.72 1.26 1.96 1.99t2.81.73m18.29 1.89q-2.16 0-3.86-.97t-2.68-2.67q-.97-1.7-.97-3.86 0-2.19.97-3.89.98-1.7 2.68-2.67 1.7-.98 3.86-.98t3.84.98q1.69.97 2.66 2.67.98 1.7 1 3.89 0 2.16-.98 3.86-.99 1.7-2.68 2.67-1.68.97-3.84.97m0-1.89q1.56 0 2.81-.73 1.24-.73 1.94-1.99.7-1.27.7-2.89t-.7-2.91q-.7-1.28-1.94-2.01-1.25-.73-2.81-.73-1.57 0-2.81.73t-1.96 2.01q-.71 1.29-.71 2.91t.71 2.89q.72 1.26 1.96 1.99t2.81.73m18.27 1.89q-2.14 0-3.84-.98-1.7-.99-2.68-2.69-.99-1.7-.99-3.86 0-2.13.96-3.83.96-1.71 2.6-2.69 1.65-.99 3.73-.99 1.81 0 3.27.77 1.45.77 2.35 2.04v-7.94q0-.48.29-.77.3-.28.76-.28t.76.28q.29.29.29.77v12.75q-.05 2.1-1.04 3.79-.98 1.69-2.67 2.66t-3.79.97m0-1.89q1.56 0 2.79-.74t1.94-2.01q.72-1.27.72-2.89 0-1.59-.72-2.88-.71-1.28-1.94-2.01t-2.79-.73q-1.54 0-2.78.73-1.25.73-1.98 2.01-.72 1.29-.72 2.88 0 1.62.72 2.89.73 1.27 1.98 2.01 1.24.74 2.78.74m19.93 1.76q-.43 0-.74-.31t-.31-.75V77.73q0-.46.3-.75.29-.3.75-.3h12.67q.45 0 .75.28.3.29.3.75 0 .4-.3.7t-.75.3h-11.61v7.45h8.45q.45 0 .75.29.3.3.3.73 0 .44-.3.73-.3.3-.75.3h-8.45v8.5q0 .44-.3.75t-.76.31m23.94.13q-2.16 0-3.86-.97t-2.67-2.67-.97-3.86q0-2.19.97-3.89t2.67-2.67q1.7-.98 3.86-.98t3.85.98q1.69.97 2.66 2.67t1 3.89q0 2.16-.99 3.86-.98 1.7-2.67 2.67t-3.85.97m0-1.89q1.57 0 2.81-.73t1.94-1.99q.7-1.27.7-2.89t-.7-2.91q-.7-1.28-1.94-2.01t-2.81-.73q-1.56 0-2.81.73-1.24.73-1.95 2.01-.72 1.29-.72 2.91t.72 2.89q.71 1.26 1.95 1.99 1.25.73 2.81.73m13.62-7.33h-1.19q.08-1.68.88-3t2.08-2.08q1.28-.75 2.85-.75 1.24 0 1.91.35.68.35.52 1.02-.11.41-.37.54-.25.14-.62.11-.36-.03-.82-.05-1.51-.14-2.69.31-1.17.44-1.86 1.36t-.69 2.19m-1.03 9.1q-.48 0-.75-.27t-.27-.76V84.03q0-.48.27-.75t.75-.27q.49 0 .76.27t.27.75v12.72q0 .49-.27.76t-.76.27m32.18-.01h-11.61q-.43 0-.75-.3-.31-.3-.31-.76V77.73q0-.43.31-.74.32-.31.75-.31t.74.31.31.74v18.04h10.56q.43 0 .74.28.31.29.31.72t-.31.71q-.31.29-.74.29m5.64 0q-.49 0-.77-.29-.28-.28-.28-.77V84.05q0-.48.28-.77.28-.28.77-.28.46 0 .74.28.29.29.29.77v12.66q0 .49-.29.77-.28.29-.74.29m-.03-17.58q-.59 0-1.02-.43t-.43-1.05q0-.68.44-1.07.45-.39 1.04-.39.57 0 1.01.39.45.39.45 1.07 0 .62-.43 1.05-.44.43-1.06.43m8.18 17.58q-.4 0-.7-.29-.29-.28-.29-.77V83.03q0-1.89.64-3.33.65-1.43 1.92-2.22 1.27-.8 3.11-.8.45 0 .75.27t.3.68q0 .4-.3.67t-.75.27q-1.22 0-2.02.55-.79.56-1.18 1.54-.4.99-.4 2.26v13.79q0 .49-.28.77-.28.29-.8.29m4.32-12.42h-7.04q-.43 0-.69-.26t-.26-.63q0-.41.26-.67.26-.25.69-.25h7.04q.44 0 .69.25.26.26.26.67 0 .37-.26.63-.25.26-.69.26m9.9 12.55q-2.19 0-3.88-.96-1.69-.95-2.64-2.66-.96-1.7-.96-3.88 0-2.22.9-3.91.91-1.68 2.5-2.65 1.59-.98 3.67-.98 2.05 0 3.58.93 1.52.94 2.36 2.58.84 1.65.84 3.76 0 .43-.27.68-.27.26-.7.26h-11.48v-1.73h11.69l-1.16.84q.03-1.57-.57-2.81-.59-1.24-1.68-1.94-1.1-.7-2.61-.7-1.54 0-2.7.73-1.16.72-1.79 2.01-.64 1.28-.64 2.93 0 1.64.72 2.91.71 1.27 1.95 2 1.25.73 2.87.73.97 0 1.95-.34.99-.34 1.58-.85.3-.24.68-.26.38-.01.65.21.35.32.36.7t-.31.65q-.89.75-2.27 1.25t-2.64.5"/><rect width="187.985" height="30.51" x="532.353" y="-356.755" fill="none" rx="0" ry="0" transform="translate(349.46 430.92)"/><path fill="#76309b" d="M808.82 86.816q-.92.92-2.108.92t-2.107-.92l-30.03-30.03q-.92-.92-.92-2.108t.92-2.107l7.975-7.976q3.246-3.246 7.156-4.426 3.896-1.181 7.736-.198 3.833.99 6.986 4.143 2.984 2.984 3.882 6.725.898 3.755-.325 7.608-1.23 3.861-4.476 7.107l-5.919 5.918 11.18 11.18q.92.919.947 2.078.022 1.167-.898 2.086m18.236-18.236q-.616.615-1.294.813-.686.191-1.556.014L803.163 64.5l2.983-5.26 19.326 4.518q1.93.431 2.411 1.972.488 1.535-.827 2.85m-46.52-14.163 13.151 13.152 5.919-5.919q2.107-2.107 2.899-4.51.785-2.412.262-4.788-.524-2.362-2.37-4.207-1.972-1.973-4.447-2.61-2.482-.629-4.936.114t-4.56 2.85Z"/><rect width="39.209" height="70.06" x="664.766" y="166.387" fill="none" rx="0" ry="0" transform="rotate(-45 580.755 -10.877)"/><path fill="#fff" d="M811.3 84.37q-.92.92-2.108.92t-2.107-.92l-30.03-30.03q-.92-.92-.92-2.108t.92-2.107l7.975-7.976q3.246-3.246 7.156-4.426 3.896-1.181 7.736-.198 3.833.99 6.986 4.143 2.984 2.984 3.882 6.725.898 3.755-.325 7.608-1.23 3.861-4.476 7.107l-5.918 5.918 11.179 11.18q.92.919.947 2.078.022 1.167-.898 2.086m18.236-18.236q-.616.615-1.294.813-.686.191-1.556.014l-21.043-4.907 2.984-5.26 19.325 4.518q1.93.431 2.411 1.973.488 1.534-.827 2.85m-46.52-14.163 13.151 13.152 5.919-5.918q2.107-2.108 2.899-4.512.785-2.411.262-4.787-.524-2.362-2.37-4.207-1.972-1.973-4.447-2.61-2.482-.629-4.936.114t-4.56 2.85Z"/><rect width="39.209" height="70.06" x="664.766" y="166.387" fill="none" rx="0" ry="0" transform="rotate(-45 579.025 -15.1)"/></g><path fill="transparent" stroke="transparent" d="M719.5 0h561v117h-561z"/></g></svg>