<svg xmlns="http://www.w3.org/2000/svg" xml:space="preserve" width="1500" height="1500" data-id="lg_DNVUaybjsU7H1mr2Xu" data-version="1"><path fill="#222" stroke="transparent" d="M0 0h1500v1500H0z"/><g data-padding="20"><g transform="translate(-580.935 -595.168)scale(1.73386)"><circle cx="731.67" cy="751.402" r="61" fill="#222" stroke="#ff851b" stroke-width="6.5" paint-order="stroke" transform="matrix(.5 0 0 .5 154.3 400.89)" vector-effect="non-scaling-stroke"/><path fill="#ff851b" d="M577.925 741.49h18.66q7.44 0 13.48 2.44 6.03 2.44 9.58 7.54 3.54 5.11 3.54 13.2 0 6.49-2.51 11.72-2.52 5.23-8.05 8.75-.35.15-.35.51 0 .2 1.33 2.36t3.37 5.33 4.18 6.44q2.13 3.27 3.74 5.78 1.61 2.52 2.06 3.22.26.4.51.88t.25 1.03q0 .91-.93 1.11t-1.54.2h-10q-1.01 0-1.71-.9-1.56-2.02-2.92-4.25-1.36-2.24-2.77-4.36-2.21-3.41-4.47-6.81-2.27-3.39-4.43-6.86-.2-.36-.55-.36h-9q-.61 0-.61.61 0 3.47-.02 6.96-.03 3.5-.08 6.97 0 1.46.08 3.54.07 2.09-.13 3.45-.15 1-.53 1.51-.37.5-1.53.5h-8.7q-2.06 0-2.06-2.11 0-2.72.1-5.46t.15-5.51q.15-11.46.15-22.98 0-10.91-.15-21.93-.05-2.61-.13-5.2-.07-2.59-.07-5.21 0-2.11 2.06-2.11m10.86 34.9h10.16q4.98 0 8.1-3.12 3.12-3.11 3.12-8.14 0-5.18-2.92-8.35t-8.15-3.17h-10.36q.05 5.68.05 11.39Zm64.62 36.83q-7.34 0-12.8-2.92-5.45-2.92-8.47-8.3t-3.02-12.77q0-6.89 2.87-12.37 2.86-5.49 8.1-8.68 5.23-3.19 12.27-3.19 8.7 0 13.65 4.87 4.96 4.88 6.72 12.98.05.15.05.5 0 .76-.38 1.13-.38.38-.98.63-1.71.81-3.62 1.41-1.91.61-3.72 1.31-5.29 1.96-10.62 3.85-5.33 1.88-10.56 4-.4.2-.4.5 0 .15.1.35 2.01 3.62 5.53 5.38t7.55 1.76q3.16 0 5.91-1 2.74-1.01 5.4-2.52.35-.2.71-.35.35-.15.7-.15.7 0 1.08.43.38.42.63.98.2.35.78 1.58t1.11 2.47q.52 1.23.52 1.58 0 .55-.3.9-.3.36-.7.66-3.57 2.46-8.68 3.72-5.1 1.26-9.43 1.26m-12.62-24.5 10.16-3.52q5.08-1.76 10.11-3.52-1.26-2.76-3.5-4.82-2.24-2.07-5.5-2.07-3.83 0-6.34 2.07-2.52 2.06-3.72 5.25-1.21 3.19-1.21 6.61m44.85 24.59q-2.87 0-5.99-1.06-3.12-1.05-5.18-3.17-.6-.6-.6-1.3 0-.31.32-1.54.33-1.23.73-2.54.41-1.31.51-1.71.2-.6.55-1.18t1.11-.58q.95 0 2.96 1.26t4.63 1.26q4.58 0 4.58-4.43 0-2.87-1.84-3.97-1.84-1.11-3.95-2.22-4.22-2.26-6.43-5.53-2.22-3.27-2.22-8.15 0-6.18 3.65-9.65 3.64-3.47 9.73-3.47.75 0 2.34.2 1.58.2 3.29.63t2.92 1.16q1.21.72 1.21 1.73 0 .96-.41 2.09-.4 1.13-.65 2.08-.2.66-.55 1.26-.35.61-1.21.61-1.06 0-2.26-.56-1.21-.55-2.62-.55-1.91 0-3.37 1.13t-1.46 3.19q0 2.37 1.44 3.68 1.43 1.3 3.54 2.31 2.12 1 4.23 2.46t3.54 4.05q1.44 2.59 1.44 7.12 0 6.44-3.6 10.91-3.6 4.48-10.38 4.48m22.08-47.62q0-4.32-.05-8.62t-.05-8.58q0-2.06 2.06-2.06h7.9q2.06 0 2.06 2.06 0 4.28-.03 8.58-.02 4.3-.02 8.62 0 .6.65.6h7.9q2.06 0 2.06 2.07 0 1.56-.03 3.14-.02 1.58-.02 3.19 0 2.06-2.06 2.06h-7.85q-.65 0-.65.61 0 8.15.05 16.29.05 8.15.05 16.3 0 2.06-2.06 2.06h-8q-2.06 0-2.06-2.06 0-8.15.07-16.3.08-8.14.08-16.29 0-.76-1.06-.73-1.05.02-2.41.18-1.36.15-2.42-.21-1.05-.35-1.05-1.91v-6.33q0-2.07 2.06-2.07h4.22q.66 0 .66-.6m27.5.7h6.74q1.91 0 2.06 1.87l.51 5.73q0 .05.1.73t.35.68.53-.56l.32-.65q2.07-3.87 5.03-6.09 2.97-2.21 7.5-2.21 1.05 0 2.69.18 1.63.17 1.63 1.68 0 .76-.3 2.37t-.68 3.24l-.58 2.49q-.2.85-.62 1.33-.43.48-1.44.48-.5 0-.98-.08-.48-.07-1.03-.07-3.97 0-6.69 2.49-2.71 2.49-4.07 6.11t-1.36 7.14v16.7q0 2.06-2.06 2.06h-7.8q-2.06 0-2.06-2.11 0-7.8.08-15.57.07-7.77.07-15.51v-10.36q0-2.07 2.06-2.07m25.7 23.03q0-6.99 2.99-12.47 2.99-5.49 8.37-8.68t12.43-3.19q6.94 0 12.12 3.14t8.07 8.58q2.89 5.43 2.89 12.22 0 6.99-2.87 12.39-2.86 5.41-8.07 8.48-5.2 3.07-12.35 3.07-7.09 0-12.39-2.95-5.31-2.94-8.25-8.22t-2.94-12.37m23.53-14.18q-3.82 0-6.38 2.03-2.57 2.04-3.88 5.21-1.3 3.17-1.3 6.64 0 3.27 1.38 6.28 1.38 3.02 3.95 4.93 2.56 1.91 6.08 1.91 3.83 0 6.37-1.93 2.53-1.94 3.82-5.01 1.28-3.06 1.28-6.54 0-3.36-1.28-6.46-1.29-3.09-3.8-5.08-2.51-1.98-6.24-1.98m29.12-8.85h6.84q1.71 0 2.01 1.82.1.4.2 1.6.1 1.21.28 2.27.17 1.05.48 1.05.25 0 .45-.22.2-.23.3-.38 3.32-3.97 7.62-5.66 4.3-1.68 9.38-1.68 4.12 0 8.02 1.51t5.76 5.53q.1.15.2.4t.35.25q.2 0 .35-.17.15-.18.26-.28 3.11-3.42 7.24-5.31 4.12-1.88 8.75-1.88 6.13 0 10.59 3.39 4.45 3.4 4.45 9.99 0 5.28.1 10.58l.2 10.59q.1 2.51.22 5.05.13 2.54.13 5.06 0 2.11-2.06 2.11h-7.85q-1.1 0-1.53-.5-.43-.51-.53-1.51-.2-2.11-.15-4.3t-.05-4.3q-.05-4.53-.13-9.05-.07-4.53-.07-9.06 0-3.52-1.69-5.5-1.68-1.99-5.3-1.99-4.18 0-7.09 2.56-2.92 2.57-4.45 6.37-1.54 3.79-1.54 7.46 0 4.43.05 8.86.05 4.42.05 8.9 0 2.06-2.06 2.06h-7.95q-2.06 0-2.06-2.06 0-6.69.1-13.33t0-13.33q-.05-3.37-1.68-5.43-1.64-2.06-5.21-2.06-4.27 0-7.19 2.54t-4.43 6.36q-1.5 3.82-1.61 7.6l-.1 6.13q-.05 3.07-.15 6.19 0 1.3.03 2.69.02 1.38-.13 2.69-.1 1-.53 1.51-.42.5-1.53.5h-7.9q-2.06 0-2.06-2.16 0-2.62.13-5.21.12-2.59.17-5.2.31-11.02.31-21.98 0-2.06-.1-4.53-.1-2.46.05-4.47.15-2.07 2.06-2.07m97.2 46.57q-6.54 0-10.97-3.12-4.42-3.12-6.66-8.28-2.24-5.15-2.24-11.19v-.8q.1-6.34 2.64-11.92t7.37-9.03q4.83-3.44 11.67-3.44 4.22 0 7.87 1.58 3.65 1.59 6.81 4.3.36.35.61.35.6 0 .58-1.25-.03-1.26.35-2.52t1.99-1.26h7.09q2.06 0 2.06 2.07 0 2.16-.03 4.32-.02 2.16-.02 4.33 0 5.53.07 11.11.08 5.58.13 11.12.05 2.61.13 5.25.07 2.64.07 5.31 0 2.11-2.06 2.11h-7.9q-1.36 0-1.76-.88t-.35-2.09q.05-1.2 0-2.16 0-.15-.05-.5t-.3-.35q-.2 0-.38.15-.17.15-.33.25-3.52 2.97-7.59 4.75-4.07 1.79-8.8 1.79m5.13-10.72q3.57 0 6.61-1.48t4.75-4.7q.11-.2.48-1.03.38-.83.38-1.03 0-1.76-.03-3.53-.02-1.76-.02-3.47 0-.8.05-1.78t-.05-1.74q-.05-.35-.38-1.05-.32-.71-.48-1.01-1.76-3.17-4.97-4.73-3.22-1.55-6.74-1.55-3.73 0-6.54 1.86-2.82 1.86-4.4 4.9-1.59 3.04-1.59 6.66t1.66 6.74 4.6 5.03q2.95 1.91 6.67 1.91m39.37 9.76h-7.89q-2.07 0-2.07-2.11 0-2.77.08-5.51t.13-5.51q.1-5.78.15-11.56.05-5.79.05-11.57t-.05-11.57q-.05-5.78-.15-11.57-.05-2.76-.13-5.5t-.08-5.51q0-2.11 2.07-2.11h7.89q2.01 0 2.06 2.06.16 2.92.13 5.86t-.03 5.86q.06 6.13.08 12.29.03 6.17.03 12.3v7.85q0 .6.45.6.2 0 .3-.05 5.03-1.41 9.73-3.55 4.7-2.13 8.27-5.65 3.58-3.52 5.08-8.91.26-.85.71-1.33t1.41-.48h9.05q.85 0 1.46.36.6.35.6 1.3 0 .21-.1.71-1.66 6.79-5.86 11.36-4.2 4.58-9.88 8.25-.35.25-.35.51 0 .15 1.38 2.01t3.45 4.57q2.06 2.72 4.22 5.54 2.16 2.81 3.82 4.95t2.11 2.79q.31.4.63.93.33.53.33 1.08 0 .96-.98 1.13-.98.18-1.64.18h-8.65q-.85 0-1.55-.75-.96-1.01-1.87-2.14-.9-1.13-1.81-2.24-2.61-3.12-5.2-6.31t-5.26-6.26q-.15-.25-.45-.25-.15 0-.25.05-2.16.8-4.38 1.45-2.21.66-4.37 1.46-.45.15-.45.61l-.16 12.32q0 2.06-2.06 2.06m64.27 1.22q-7.34 0-12.8-2.92t-8.47-8.3q-3.02-5.38-3.02-12.77 0-6.89 2.87-12.37 2.86-5.49 8.09-8.68t12.27-3.19q8.71 0 13.66 4.87 4.95 4.88 6.71 12.98.05.15.05.5 0 .76-.37 1.13-.38.38-.98.63-1.71.81-3.63 1.41-1.91.61-3.72 1.31-5.28 1.96-10.61 3.85-5.33 1.88-10.56 4-.4.2-.4.5 0 .15.1.35 2.01 3.62 5.53 5.38t7.54 1.76q3.17 0 5.91-1 2.74-1.01 5.41-2.52.35-.2.7-.35.36-.15.71-.15.7 0 1.08.43.38.42.63.98.2.35.78 1.58t1.1 2.47q.53 1.23.53 1.58 0 .55-.3.9-.3.36-.7.66-3.57 2.46-8.68 3.72-5.1 1.26-9.43 1.26m-12.62-24.5 10.16-3.52q5.08-1.76 10.11-3.52-1.26-2.76-3.5-4.82-2.24-2.07-5.51-2.07-3.82 0-6.33 2.07-2.52 2.06-3.73 5.25-1.2 3.19-1.2 6.61"/><rect width="475.567" height="116.39" x="128.052" y="317.506" fill="none" rx="0" ry="0" transform="translate(441.97 400.12)"/><path fill="#ff851b" d="m527.503 754.12-7.848 7.85-7.849-7.85-14.151 14.152 7.848 7.849-7.848 7.848 14.151 14.152 7.849-7.849 7.848 7.849 14.152-14.152-7.849-7.848 7.849-7.849Z" vector-effect="non-scaling-stroke"/></g><path fill="transparent" stroke="transparent" stroke-width="1.799" d="M250 645.683h1000v208.634H250z"/></g></svg>